<svg xmlns="http://www.w3.org/2000/svg" width="1600" height="900" fill="none" viewBox="0 0 1600 900"><rect width="1600" height="900" fill="#061116"/><rect width="1480" height="780" x="60" y="60" fill="#0B1720" stroke="#22C55E" stroke-opacity=".25" stroke-width="2" rx="28"/><text x="110" y="136" fill="#E6FFF1" font-family="Menlo, monospace" font-size="34">repo-health scan ./candidate-repo</text><text x="110" y="182" fill="#7FD8A0" font-family="Menlo, monospace" font-size="22">quality report for maintainability, CI, licensing, and staleness</text><rect width="520" height="520" x="110" y="230" fill="#0E1F2A" stroke="#22C55E" stroke-opacity=".18" rx="24"/><circle cx="370" cy="490" r="170" stroke="#1D4ED8" stroke-opacity=".22" stroke-width="36"/><path stroke="#22C55E" stroke-linecap="round" stroke-width="36" d="M370 320A170 170 0 1 1 244 604"/><text x="304" y="500" fill="#E6FFF1" font-family="Menlo, monospace" font-size="86">82</text><text x="290" y="548" fill="#7FD8A0" font-family="Menlo, monospace" font-size="26">health score</text><rect width="744" height="520" x="686" y="230" fill="#0E1F2A" stroke="#22C55E" stroke-opacity=".18" rx="24"/><text x="732" y="292" fill="#E6FFF1" font-family="Menlo, monospace" font-size="24">top signals</text><rect width="652" height="70" x="732" y="330" fill="#102533" rx="18"/><text x="766" y="374" fill="#7FD8A0" font-family="Menlo, monospace" font-size="22">README completeness</text><rect width="220" height="20" x="1120" y="348" fill="#143446" rx="10"/><rect width="190" height="20" x="1120" y="348" fill="#22C55E" rx="10"/><rect width="652" height="70" x="732" y="424" fill="#102533" rx="18"/><text x="766" y="468" fill="#7FD8A0" font-family="Menlo, monospace" font-size="22">CI coverage</text><rect width="220" height="20" x="1120" y="442" fill="#143446" rx="10"/><rect width="160" height="20" x="1120" y="442" fill="#22C55E" rx="10"/><rect width="652" height="70" x="732" y="518" fill="#102533" rx="18"/><text x="766" y="562" fill="#7FD8A0" font-family="Menlo, monospace" font-size="22">maintainer freshness</text><rect width="220" height="20" x="1120" y="536" fill="#143446" rx="10"/><rect width="118" height="20" x="1120" y="536" fill="#F59E0B" rx="10"/><rect width="652" height="70" x="732" y="612" fill="#102533" rx="18"/><text x="766" y="656" fill="#7FD8A0" font-family="Menlo, monospace" font-size="22">license + topics hygiene</text><rect width="220" height="20" x="1120" y="630" fill="#143446" rx="10"/><rect width="174" height="20" x="1120" y="630" fill="#22C55E" rx="10"/><text x="110" y="804" fill="#7FD8A0" font-family="Menlo, monospace" font-size="20">A practical developer tool that turns repo quality into something teams can score, compare, and improve.</text></svg>