<svg width="1600" height="900" viewBox="0 0 1600 900" fill="none" xmlns="http://www.w3.org/2000/svg">
  <rect width="1600" height="900" fill="#061116"/>
  <rect x="60" y="60" width="1480" height="780" rx="28" fill="#0B1720" stroke="#22C55E" stroke-opacity="0.25" stroke-width="2"/>
  <text x="110" y="136" fill="#E6FFF1" font-family="Menlo, monospace" font-size="34">repo-health scan ./candidate-repo</text>
  <text x="110" y="182" fill="#7FD8A0" font-family="Menlo, monospace" font-size="22">quality report for maintainability, CI, licensing, and staleness</text>
  <rect x="110" y="230" width="520" height="520" rx="24" fill="#0E1F2A" stroke="#22C55E" stroke-opacity="0.18"/>
  <circle cx="370" cy="490" r="170" stroke="#1D4ED8" stroke-opacity="0.22" stroke-width="36"/>
  <path d="M370 320A170 170 0 1 1 244 604" stroke="#22C55E" stroke-width="36" stroke-linecap="round"/>
  <text x="304" y="500" fill="#E6FFF1" font-family="Menlo, monospace" font-size="86">82</text>
  <text x="290" y="548" fill="#7FD8A0" font-family="Menlo, monospace" font-size="26">health score</text>
  <rect x="686" y="230" width="744" height="520" rx="24" fill="#0E1F2A" stroke="#22C55E" stroke-opacity="0.18"/>
  <text x="732" y="292" fill="#E6FFF1" font-family="Menlo, monospace" font-size="24">top signals</text>
  <rect x="732" y="330" width="652" height="70" rx="18" fill="#102533"/>
  <text x="766" y="374" fill="#7FD8A0" font-family="Menlo, monospace" font-size="22">README completeness</text>
  <rect x="1120" y="348" width="220" height="20" rx="10" fill="#143446"/>
  <rect x="1120" y="348" width="190" height="20" rx="10" fill="#22C55E"/>
  <rect x="732" y="424" width="652" height="70" rx="18" fill="#102533"/>
  <text x="766" y="468" fill="#7FD8A0" font-family="Menlo, monospace" font-size="22">CI coverage</text>
  <rect x="1120" y="442" width="220" height="20" rx="10" fill="#143446"/>
  <rect x="1120" y="442" width="160" height="20" rx="10" fill="#22C55E"/>
  <rect x="732" y="518" width="652" height="70" rx="18" fill="#102533"/>
  <text x="766" y="562" fill="#7FD8A0" font-family="Menlo, monospace" font-size="22">maintainer freshness</text>
  <rect x="1120" y="536" width="220" height="20" rx="10" fill="#143446"/>
  <rect x="1120" y="536" width="118" height="20" rx="10" fill="#F59E0B"/>
  <rect x="732" y="612" width="652" height="70" rx="18" fill="#102533"/>
  <text x="766" y="656" fill="#7FD8A0" font-family="Menlo, monospace" font-size="22">license + topics hygiene</text>
  <rect x="1120" y="630" width="220" height="20" rx="10" fill="#143446"/>
  <rect x="1120" y="630" width="174" height="20" rx="10" fill="#22C55E"/>
  <text x="110" y="804" fill="#7FD8A0" font-family="Menlo, monospace" font-size="20">A practical developer tool that turns repo quality into something teams can score, compare, and improve.</text>
</svg>
